<?xml version="1.0" encoding="utf-8"?>
<!-- Generator: Adobe Illustrator 28.1.0, SVG Export Plug-In . SVG Version: 6.00 Build 0)  -->
<svg version="1.1" id="Layer_1" xmlns="http://www.w3.org/2000/svg" xmlns:xlink="http://www.w3.org/1999/xlink" x="0px" y="0px"
	 viewBox="0 0 924.69 322.49" style="enable-background:new 0 0 924.69 322.49;" xml:space="preserve">
<style type="text/css">
	.st0{fill:#00588F;}
</style>
<g>
	<path class="st0" d="M410.45,138.79v18.98h-69.72V70.93h68.11v18.98h-43.79v14.64h38.58v18.36h-38.58v15.88H410.45z"/>
	<path class="st0" d="M419.51,114.35c0-26.42,20.22-45.16,47.76-45.16c16,0,28.9,5.83,37.34,16.38l-15.63,14.14
		c-5.46-6.57-12.16-10.17-20.47-10.17c-14.27,0-24.19,9.92-24.19,24.81s9.92,24.81,24.19,24.81c8.31,0,15.01-3.6,20.47-10.17
		l15.63,14.14c-8.44,10.54-21.34,16.38-37.34,16.38C439.73,159.5,419.51,140.77,419.51,114.35z"/>
	<path class="st0" d="M515.53,70.93h24.56v67.36h41.43v19.48h-66V70.93z"/>
	<path class="st0" d="M591.21,70.93h24.56v86.84h-24.56V70.93z"/>
	<path class="st0" d="M711.54,103.06c0,19.72-14.89,32.01-38.58,32.01h-15.13v22.7h-24.56V70.93h39.7
		C696.65,70.93,711.54,83.21,711.54,103.06z M686.73,103.06c0-8.06-5.09-12.78-15.26-12.78h-13.65v25.43h13.65
		C681.64,115.71,686.73,111,686.73,103.06z"/>
	<path class="st0" d="M718.62,149.95l8.06-18.11c7.69,5.09,18.61,8.56,28.66,8.56c10.17,0,14.14-2.85,14.14-7.07
		c0-13.77-49.37-3.72-49.37-35.98c0-15.51,12.65-28.16,38.46-28.16c11.29,0,22.95,2.6,31.51,7.57L782.5,95
		c-8.31-4.47-16.5-6.7-24.07-6.7c-10.3,0-14.02,3.47-14.02,7.82c0,13.27,49.25,3.35,49.25,35.36c0,15.13-12.65,28.04-38.46,28.04
		C740.94,159.5,726.8,155.66,718.62,149.95z"/>
	<path class="st0" d="M874.68,138.79v18.98h-69.72V70.93h68.11v18.98h-43.79v14.64h38.58v18.36h-38.58v15.88H874.68z"/>
	<path class="st0" d="M340.73,208.76c0-19.42,14.83-33.97,34.83-33.97c19.9,0,34.83,14.45,34.83,33.97s-14.93,33.97-34.83,33.97
		C355.56,242.73,340.73,228.18,340.73,208.76z M405.42,208.76c0-16.94-12.82-29.47-29.85-29.47c-17.13,0-29.95,12.54-29.95,29.47
		c0,16.94,12.82,29.47,29.95,29.47C392.59,238.23,405.42,225.69,405.42,208.76z"/>
	<path class="st0" d="M439.75,179.67h-24.11v-4.4h53.11v4.4h-24.11v62.58h-4.88V179.67z"/>
	<path class="st0" d="M503.45,179.67h-24.11v-4.4h53.11v4.4h-24.11v62.58h-4.88V179.67z"/>
	<path class="st0" d="M589.26,237.85v4.4h-46.22v-66.98h44.78v4.4h-39.9v26.41h35.69v4.31h-35.69v27.46H589.26z"/>
	<path class="st0" d="M646.36,242.25l-15.98-22.39c-2.11,0.29-4.21,0.48-6.51,0.48h-19.14v21.91h-4.88v-66.98h24.02
		c16.84,0,26.98,8.42,26.98,22.58c0,10.62-5.74,17.99-15.69,20.96l16.75,23.44H646.36z M623.87,216.03
		c14.35,0,22.01-6.7,22.01-18.18c0-11.58-7.65-18.18-22.01-18.18h-19.14v36.36H623.87z"/>
	<path class="st0" d="M662.5,175.27H689c21.24,0,35.6,13.97,35.6,33.49s-14.35,33.49-35.6,33.49H662.5V175.27z M688.62,237.85
		c18.95,0,31.1-12.06,31.1-29.09s-12.15-29.09-31.1-29.09h-21.24v58.18H688.62z"/>
	<path class="st0" d="M735.19,208.76c0-19.42,14.83-33.97,34.83-33.97c19.9,0,34.83,14.45,34.83,33.97s-14.93,33.97-34.83,33.97
		C750.03,242.73,735.19,228.18,735.19,208.76z M799.88,208.76c0-16.94-12.82-29.47-29.85-29.47c-17.13,0-29.95,12.54-29.95,29.47
		c0,16.94,12.82,29.47,29.95,29.47C787.06,238.23,799.88,225.69,799.88,208.76z"/>
	<path class="st0" d="M869.7,209.04h4.69v25.07c-6.03,5.74-14.74,8.61-23.92,8.61c-20.19,0-35.02-14.45-35.02-33.97
		s14.83-33.97,35.12-33.97c9.66,0,18.18,3.06,24.11,9.19l-3.06,3.25c-5.84-5.74-12.82-7.94-20.96-7.94
		c-17.42,0-30.33,12.63-30.33,29.47c0,16.75,12.92,29.47,30.33,29.47c7.08,0,13.59-1.72,19.04-6.12V209.04z"/>
	<path class="st0" d="M192.72,221.3c-1.85-0.19-3.64-0.6-5.41-1.18c-1.95-0.64-3.81-1.47-5.62-2.39c-1.08-0.55-2.15-1.12-3.2-1.74
		c-0.91-0.53-1.77-1.13-2.57-1.82c-0.26-0.23-0.52-0.47-0.77-0.72c-1.07-1.08-1.87-2.33-2.23-3.81c-0.1-0.42-0.14-0.84-0.11-1.26
		c0.03-0.42,0.13-0.83,0.28-1.24c0.39-1,0.91-1.88,1.58-2.64s1.48-1.38,2.44-1.86c0,0,0,0,0,0c1.02-0.52,2.08-0.93,3.11-1.42
		c1.53-0.74,3.05-1.5,4.4-2.54c0.41-0.32,0.81-0.65,1.2-0.99c1.39-1.2,2.6-2.55,3.58-4.07c0.57-0.89,1.07-1.84,1.46-2.87
		c0.22-0.57,0.36-1.12,0.43-1.67c0.2-1.55-0.18-3.03-1.17-4.44c-0.31-0.44-0.64-0.86-1-1.25c0,0-0.01-0.01-0.01-0.01
		c-1.06-1.18-2.3-2.15-3.72-2.93c-2.26-1.25-4.84-2.28-7.39-2.73c-1.76-0.31-3.5-0.56-5.22-0.72c-0.65-0.06-1.3-0.11-1.95-0.15
		v-0.06c-0.23,0.01-0.47,0.02-0.7,0.02c-0.07,0-0.14,0-0.21-0.01c-0.07,0-0.14,0-0.21,0.01c-0.23-0.01-0.47-0.02-0.7-0.02v0.06
		c-0.65,0.04-1.3,0.09-1.95,0.15c-1.72,0.16-3.46,0.41-5.22,0.72c-2.56,0.45-5.13,1.48-7.39,2.73c-1.42,0.79-2.66,1.75-3.72,2.93
		c0,0-0.01,0-0.01,0.01c-0.35,0.39-0.69,0.81-1,1.25c-0.99,1.41-1.37,2.88-1.17,4.44c0.07,0.54,0.21,1.1,0.43,1.67
		c0.39,1.03,0.89,1.98,1.46,2.87c0.98,1.53,2.19,2.87,3.58,4.07c0.39,0.34,0.79,0.67,1.2,0.99c1.35,1.04,2.87,1.8,4.4,2.54
		c1.03,0.5,2.1,0.91,3.11,1.42c0,0,0,0,0,0c0.96,0.49,1.77,1.11,2.44,1.86s1.19,1.63,1.58,2.64c0.16,0.41,0.25,0.82,0.28,1.24
		c0.03,0.42,0,0.84-0.11,1.26c-0.36,1.48-1.16,2.73-2.23,3.81c-0.25,0.25-0.51,0.49-0.77,0.72c-0.79,0.69-1.66,1.29-2.57,1.82
		c-1.05,0.62-2.12,1.19-3.2,1.74c-1.81,0.92-3.67,1.74-5.62,2.39c-1.77,0.58-3.56,0.99-5.41,1.18c-0.76,0.08-1.52,0.15-2.29,0.15
		c-0.34,0-0.68-0.01-1.03-0.05l0,0c0.15,0.12,0.29,0.24,0.45,0.34c0.09,0.06,0.17,0.12,0.27,0.16c0.92,0.44,1.83,0.92,2.78,1.28
		c0.89,0.34,1.8,0.62,2.72,0.84c0.54,0.12,1.09,0.21,1.65,0.28c0.39,0.05,0.78,0.09,1.18,0.11c0.27,0.01,0.54,0.02,0.82,0.02
		c1.55,0,3.08-0.2,4.59-0.53c1.38-0.3,2.73-0.72,4.07-1.16c2.24-0.73,4.48-1.51,6.83-1.78c0.05-0.01,0.11-0.01,0.16-0.02
		c0.13-0.01,0.25-0.03,0.38-0.04c0.07,0.01,0.14,0.01,0.21,0.02c0.07-0.01,0.14-0.02,0.21-0.02c0.13,0.01,0.25,0.02,0.38,0.04
		c0.05,0.01,0.11,0.01,0.16,0.02c2.35,0.27,4.59,1.04,6.83,1.78c1.35,0.44,2.69,0.87,4.07,1.16c1.52,0.33,3.04,0.53,4.59,0.53
		c0.27,0,0.54-0.01,0.82-0.02c0.4-0.02,0.79-0.06,1.18-0.11c0.55-0.07,1.1-0.16,1.65-0.28c0.92-0.21,1.83-0.5,2.72-0.84
		c0.95-0.36,1.86-0.84,2.78-1.28c0.09-0.05,0.18-0.11,0.27-0.16c0.15-0.1,0.3-0.22,0.45-0.34l0,0c-0.34,0.04-0.69,0.05-1.03,0.05
		C194.24,221.45,193.48,221.37,192.72,221.3z M267.52,221.91c0.38,0.52,0.73,1.06,1.04,1.6c0,0,0,0,0,0
		c-1.16-1.09-2.37-2.05-3.65-2.96c-0.6-0.42-1.21-0.8-1.82-1.19c-0.49-0.31-0.98-0.63-1.48-0.93c-0.74-0.45-1.49-0.9-2.24-1.34
		c-0.41-0.24-0.84-0.49-1.27-0.73c-0.2-0.11-0.39-0.22-0.59-0.33c-0.02-0.01-0.05-0.03-0.07-0.04c-0.44-0.25-0.89-0.5-1.32-0.73
		c-0.52-0.28-1.05-0.54-1.57-0.82c-0.74-0.39-1.47-0.79-2.22-1.15c0,0,0,0,0,0c-0.15,0.62-0.32,1.25-0.49,1.87
		c-0.02,0.07-0.03,0.13-0.05,0.2c-0.19,0.68-0.39,1.36-0.6,2.03c0,0,0,0,0,0c-0.46,1.48-0.96,2.96-1.49,4.42v0
		c1.14,0.86,2.25,1.77,3.33,2.7c0.03,0.03,0.07,0.06,0.1,0.09c0.04,0.03,0.07,0.07,0.11,0.1c0.03,0.02,0.05,0.05,0.08,0.07
		c1,0.88,1.98,1.79,2.93,2.73c0.46,0.46,0.91,0.92,1.35,1.39c0.08,0.08,0.15,0.16,0.23,0.24c0.95,1,1.87,2.04,2.73,3.11
		c0.01,0.02,0.03,0.03,0.04,0.05c0.96,1.2,1.84,2.44,2.6,3.78c0.39,0.7,0.74,1.42,1.04,2.16c-0.51-0.61-1.02-1.2-1.56-1.77
		c-1.05-1.09-2.18-2.1-3.33-3.08c-1.58-1.33-3.22-2.59-4.86-3.84c0,0-0.01-0.01-0.01-0.01c-1.99-1.5-4.02-2.92-6.11-4.28
		c-0.33,0.82-0.68,1.64-1.03,2.45c-0.25,0.57-0.52,1.12-0.79,1.68c-0.19,0.4-0.39,0.8-0.59,1.2c-0.34,0.67-0.7,1.33-1.07,1.98h0
		c0.16,0.17,0.32,0.35,0.48,0.52c1.2,1.28,2.37,2.59,3.46,3.96c0.15,0.18,0.29,0.38,0.43,0.57c0,0,0,0.01,0.01,0.01
		c0.46,0.59,0.92,1.18,1.36,1.8c0.46,0.63,0.91,1.26,1.33,1.89c1.52,2.25,2.98,4.59,4.06,7.1c0.5,1.18,0.93,2.4,1.2,3.65
		c-0.4-0.69-0.81-1.35-1.25-2.01c-2.02-2.96-4.49-5.58-6.95-8.18c-1.97-2.08-4.03-4.07-6.16-5.98c-0.01-0.01-0.02-0.01-0.03-0.02
		c-0.04,0.09-0.09,0.18-0.14,0.27c-1.5,2.94-3.12,5.81-4.86,8.61c2.18,3.61,4.03,7.43,5.49,11.39c0.55,1.5,1.02,3.06,1.33,4.63
		c0.1,0.51,0.18,1.03,0.24,1.55c0.05,0.43,0.09,0.87,0.11,1.3c-0.19-0.59-0.41-1.17-0.64-1.74c-1.05-2.63-2.45-5.06-3.94-7.47
		c-0.89-1.45-1.82-2.91-2.76-4.33c-0.55-0.82-1.12-1.62-1.69-2.43c-6.27,9.43-13.94,17.91-22.84,24.86
		c8.38-8.16,15.21-17.74,20.4-28.13c-0.42-0.54-0.84-1.07-1.26-1.6c-0.72-0.89-1.45-1.77-2.19-2.64c-0.6-0.7-1.22-1.39-1.84-2.08
		c-0.78-0.87-1.58-1.72-2.38-2.56c-0.02-0.02-0.05-0.05-0.07-0.07c-0.79-0.83-1.59-1.64-2.41-2.45c-0.04-0.04-0.08-0.08-0.12-0.12
		c-0.8-0.79-1.61-1.58-2.42-2.35c-0.06-0.06-0.12-0.11-0.18-0.17c-0.8-0.76-1.61-1.51-2.43-2.26c-0.08-0.08-0.17-0.15-0.25-0.22
		c-0.8-0.73-1.6-1.45-2.41-2.17c-0.11-0.1-0.23-0.2-0.34-0.3c-0.78-0.69-1.56-1.38-2.35-2.06c-0.2-0.17-0.4-0.34-0.59-0.51
		c-0.71-0.61-1.42-1.22-2.13-1.82c-0.69-0.59-1.39-1.18-2.09-1.77c-0.22-0.19-0.44-0.37-0.66-0.56c1.2-0.56,2.34-1.26,3.39-2.1
		c1.07,0.77,2.12,1.55,3.16,2.35c1.96,1.51,3.86,3.1,5.72,4.74c0.54,0.47,1.08,0.93,1.61,1.41c0.36,0.33,0.71,0.68,1.07,1.01
		c0.61,0.57,1.22,1.13,1.81,1.71c2.81,2.76,5.48,5.67,7.93,8.75c0.02,0.02,0.04,0.04,0.06,0.07c0.02,0.03,0.05,0.06,0.07,0.08
		c0.64,0.81,1.27,1.63,1.88,2.46c0.63-1.23,1.29-2.56,1.93-3.88c0.3-0.62,0.59-1.23,0.87-1.84c0.29-0.62,0.57-1.23,0.82-1.82
		c-0.19-0.16-0.37-0.32-0.55-0.47c-0.9-0.71-1.81-1.41-2.74-2.09c-3.82-2.84-7.81-5.45-11.86-7.95c-3.35-2.07-6.74-4.07-10.13-6.06
		c0.32-0.33,0.61-0.69,0.9-1.04c0.53-0.63,1.03-1.29,1.47-2c0.95,0.43,1.9,0.87,2.84,1.33c1.03,0.5,2.06,1.04,3.09,1.58
		c0.67,0.35,1.34,0.71,1.99,1.07c1.04,0.58,2.07,1.18,3.09,1.79c0.93,0.56,1.85,1.13,2.77,1.72c2.56,1.63,5.06,3.38,7.46,5.24
		c0.35,0.28,0.72,0.54,1.07,0.82c0.06,0.05,0.11,0.1,0.17,0.14c0.68,0.55,1.35,1.1,2.02,1.67c0.87-2.04,1.69-4.03,2.3-6.11
		c-0.05-0.03-0.09-0.07-0.13-0.1c-0.02-0.01-0.04-0.03-0.07-0.04c-0.45-0.25-0.9-0.48-1.35-0.72c-2.64-1.41-5.35-2.73-8.08-3.96
		c-0.53-0.24-1.05-0.48-1.58-0.71c-2.7-1.19-5.45-2.3-8.21-3.37c-2.09-0.81-4.18-1.6-6.27-2.38c0.13-0.27,0.23-0.55,0.35-0.82
		c0.39-0.93,0.75-1.88,1.01-2.88c1.4,0.4,2.8,0.83,4.18,1.28c1.06,0.35,2.12,0.71,3.17,1.09c3.16,1.13,6.27,2.4,9.31,3.82
		c1.73,0.81,3.47,1.68,5.16,2.59c0.62,0.34,1.25,0.68,1.87,1.04c0-0.01,0.01-0.01,0.01-0.01c0.03,0,0.1,0.05,0.19,0.13
		c0.5,0.29,1,0.58,1.49,0.88c0.06,0.03,0.11,0.06,0.17,0.1c0,0,0,0,0,0c0.07-0.2,0.16-0.45,0.21-0.6c0.01-0.04,0.03-0.08,0.03-0.1
		c0.44-2.26,0.78-4.54,1.01-6.83c-0.84-0.33-1.69-0.65-2.54-0.96c-2.55-0.93-5.14-1.78-7.75-2.54c-3.42-1.01-6.88-1.87-10.35-2.67
		c-1.84-0.42-3.68-0.83-5.52-1.22c0.03-0.5,0.05-0.99,0.05-1.49c0-0.84-0.05-1.66-0.14-2.46h0c3.22,0.5,6.41,1.13,9.58,1.88
		c1.58,0.38,3.16,0.79,4.73,1.23c1.57,0.44,3.12,0.92,4.67,1.43c0.24,0.08,0.47,0.17,0.71,0.25c1.2,0.41,2.38,0.84,3.56,1.29
		c0.39,0.15,0.78,0.29,1.17,0.44c0.71,0.27,1.42,0.54,2.12,0.82c0.02-0.6,0.03-1.19,0.04-1.79c-0.52-0.51-1.04-1.01-1.58-1.49
		c-1.49-1.34-3.07-2.57-4.72-3.73c-0.32-0.23-0.65-0.46-0.97-0.7c-0.02-0.01-0.04-0.03-0.05-0.05c-0.07-0.07-0.15-0.15-0.26-0.27
		c0.09,0.03,0.2,0.07,0.31,0.11c0.14,0.05,0.3,0.1,0.46,0.15c1.56,0.49,4.13,1.2,5.87,1.64c0.15,0.04,0.29,0.07,0.43,0.11
		s0.26,0.06,0.38,0.09c-0.01-0.2-0.03-0.41-0.05-0.61c-0.49-0.32-0.97-0.64-1.46-0.96c-0.49-0.32-0.98-0.63-1.48-0.92
		c-0.47-0.28-0.94-0.55-1.42-0.82c-0.56-0.32-1.12-0.63-1.68-0.94c-0.52-0.29-1.04-0.58-1.57-0.85c-2.34-1.21-4.73-2.31-7.16-3.31
		c-2.43-0.99-4.91-1.87-7.43-2.63c-1.57-0.47-3.16-0.91-4.74-1.38c-1.05-0.31-2.1-0.64-3.14-1c-1.55-0.54-3.07-1.16-4.54-1.92
		c-1.29-0.68-2.53-1.43-3.74-2.24c-1.36-0.91-2.68-1.88-3.99-2.85c-0.68-0.51-1.36-1.01-2.04-1.51c-1.5-1.11-3.02-2.2-4.61-3.19
		c-2.6-1.62-5.4-2.85-8.31-3.77c-0.89-0.28-1.8-0.52-2.71-0.74c-2.06-0.5-4.15-0.86-6.26-1.08c-0.02,0-0.04,0-0.06,0
		c-0.02,0-0.04,0-0.06,0c-0.13,0-0.27-0.01-0.4-0.01c-0.14,0-0.28-0.01-0.42-0.01c0,0,0,0,0,0c-0.04,0-0.09,0-0.13,0
		c-0.02,0-0.04,0-0.07,0c-2.25-0.09-4.5-0.18-6.75-0.27c-0.07,0-0.14,0.01-0.21,0.01c-0.07,0-0.14-0.01-0.21-0.01
		c-2.25,0.09-4.5,0.18-6.75,0.27c-0.02,0-0.04,0-0.07,0c-0.04,0-0.09,0-0.13,0c0,0,0,0,0,0c-0.14,0.01-0.28,0.01-0.42,0.01
		c-0.13,0-0.27,0.01-0.4,0.01c-0.02,0-0.04,0-0.06,0c-0.02,0-0.04,0-0.06,0c-2.11,0.22-4.21,0.58-6.26,1.08
		c-0.91,0.22-1.82,0.46-2.71,0.74c-2.91,0.91-5.71,2.15-8.31,3.77c-1.59,0.99-3.1,2.08-4.61,3.19c-0.68,0.5-1.36,1.01-2.04,1.51
		c-1.31,0.98-2.63,1.94-3.99,2.85c-1.2,0.8-2.44,1.56-3.74,2.24c-1.46,0.76-2.99,1.38-4.54,1.92c-1.03,0.36-2.08,0.69-3.14,1
		c-1.58,0.47-3.17,0.91-4.74,1.38c-2.52,0.76-5,1.64-7.43,2.63c-2.43,0.99-4.82,2.09-7.16,3.31c-0.53,0.27-1.05,0.56-1.57,0.85
		c-0.56,0.31-1.12,0.62-1.68,0.94c-0.47,0.27-0.95,0.54-1.42,0.82c-0.5,0.29-0.99,0.61-1.48,0.92c-0.49,0.32-0.97,0.64-1.46,0.96
		c-0.02,0.2-0.03,0.41-0.05,0.61c0.12-0.03,0.25-0.06,0.38-0.09s0.28-0.07,0.43-0.11c1.74-0.44,4.31-1.15,5.87-1.64
		c0.16-0.05,0.32-0.1,0.46-0.15c0.11-0.04,0.22-0.07,0.31-0.11c-0.12,0.12-0.19,0.2-0.26,0.27c-0.02,0.02-0.04,0.04-0.05,0.05
		c-0.32,0.24-0.64,0.47-0.97,0.7c-1.64,1.15-3.22,2.39-4.72,3.73c-0.54,0.48-1.06,0.99-1.58,1.49c0,0.6,0.01,1.19,0.04,1.79
		c0.7-0.27,1.41-0.55,2.12-0.82c0.39-0.15,0.78-0.29,1.17-0.44c1.18-0.45,2.37-0.88,3.56-1.29c0.24-0.08,0.47-0.17,0.71-0.25
		c1.55-0.51,3.1-0.99,4.67-1.43c1.57-0.44,3.14-0.85,4.73-1.23c3.17-0.76,6.36-1.38,9.58-1.88h0c-0.09,0.81-0.14,1.63-0.14,2.46
		c0,0.5,0.02,1,0.05,1.49c-1.85,0.39-3.69,0.8-5.52,1.22c-3.47,0.8-6.93,1.66-10.35,2.67c-2.62,0.76-5.2,1.6-7.75,2.54
		c-0.85,0.31-1.7,0.63-2.54,0.96c0.23,2.29,0.57,4.57,1.01,6.83c0.01,0.02,0.02,0.06,0.03,0.1c0.05,0.15,0.14,0.4,0.21,0.6
		c0,0,0,0,0,0c0.06-0.03,0.11-0.07,0.17-0.1c0.5-0.3,0.99-0.59,1.49-0.88c0.1-0.08,0.17-0.13,0.19-0.13c0.01,0,0.01,0,0.01,0.01
		c0.62-0.36,1.25-0.7,1.87-1.04c1.68-0.92,3.42-1.78,5.16-2.59c3.04-1.42,6.15-2.69,9.31-3.82c1.05-0.38,2.11-0.74,3.17-1.09
		c1.39-0.45,2.78-0.88,4.18-1.28c0.26,1,0.61,1.95,1.01,2.88c0.12,0.27,0.22,0.56,0.35,0.82c-2.09,0.78-4.19,1.57-6.27,2.38
		c-2.76,1.07-5.5,2.18-8.21,3.37c-0.53,0.23-1.06,0.47-1.58,0.71c-2.73,1.23-5.44,2.55-8.08,3.96c-0.45,0.24-0.91,0.48-1.35,0.72
		c-0.02,0.01-0.04,0.02-0.07,0.04c-0.04,0.03-0.08,0.06-0.13,0.1c0.61,2.08,1.44,4.07,2.3,6.11c0.66-0.57,1.34-1.12,2.02-1.67
		c0.06-0.05,0.11-0.1,0.17-0.14c0.35-0.28,0.72-0.54,1.07-0.82c2.4-1.86,4.89-3.61,7.46-5.24c0.92-0.58,1.84-1.16,2.77-1.72
		c1.02-0.61,2.05-1.21,3.09-1.79c0.66-0.36,1.32-0.71,1.99-1.07c1.03-0.54,2.06-1.07,3.09-1.58c0.94-0.46,1.89-0.91,2.84-1.33
		c0.45,0.71,0.95,1.37,1.47,2c0.29,0.35,0.59,0.71,0.9,1.04c-3.39,1.99-6.78,3.99-10.13,6.06c-4.05,2.5-8.04,5.11-11.86,7.95
		c-0.92,0.68-1.83,1.38-2.74,2.09c-0.18,0.15-0.36,0.31-0.55,0.47c0.26,0.59,0.54,1.2,0.82,1.82c0.28,0.61,0.58,1.22,0.87,1.84
		c0.64,1.32,1.31,2.65,1.93,3.88c0.61-0.83,1.24-1.65,1.88-2.46c0.02-0.03,0.05-0.06,0.07-0.08c0.02-0.02,0.04-0.04,0.06-0.07
		c2.46-3.08,5.12-6,7.93-8.75c0.59-0.58,1.21-1.15,1.81-1.71c0.36-0.34,0.71-0.68,1.07-1.01c0.53-0.48,1.08-0.94,1.61-1.41
		c1.86-1.63,3.76-3.22,5.72-4.74c1.04-0.8,2.1-1.59,3.16-2.35c1.05,0.84,2.18,1.54,3.39,2.1c-0.22,0.19-0.44,0.37-0.66,0.56
		c-0.7,0.59-1.39,1.18-2.09,1.77c-0.71,0.6-1.42,1.21-2.13,1.82c-0.2,0.17-0.4,0.34-0.59,0.51c-0.79,0.68-1.57,1.37-2.35,2.06
		c-0.11,0.1-0.23,0.2-0.34,0.3c-0.81,0.72-1.61,1.44-2.41,2.17c-0.08,0.08-0.17,0.15-0.25,0.22c-0.82,0.75-1.62,1.5-2.43,2.26
		c-0.06,0.06-0.12,0.11-0.18,0.17c-0.82,0.77-1.62,1.56-2.42,2.35c-0.04,0.04-0.08,0.08-0.12,0.12c-0.81,0.81-1.61,1.62-2.41,2.45
		c-0.02,0.02-0.05,0.05-0.07,0.07c-0.81,0.84-1.6,1.7-2.38,2.56c-0.62,0.69-1.24,1.37-1.84,2.08c-0.74,0.86-1.48,1.74-2.19,2.64
		c-0.42,0.53-0.85,1.06-1.26,1.6c5.19,10.39,12.03,19.97,20.4,28.13c-8.9-6.95-16.57-15.43-22.84-24.86
		c-0.58,0.8-1.14,1.61-1.69,2.43c-0.95,1.42-1.87,2.88-2.76,4.33c-1.49,2.41-2.88,4.84-3.94,7.47c-0.23,0.57-0.45,1.15-0.64,1.74
		c0.02-0.43,0.06-0.86,0.11-1.3c0.06-0.52,0.14-1.04,0.24-1.55c0.31-1.57,0.78-3.13,1.33-4.63c1.46-3.96,3.31-7.78,5.49-11.39
		c-1.74-2.8-3.36-5.67-4.86-8.61c-0.04-0.09-0.09-0.18-0.14-0.27c-0.01,0.01-0.02,0.01-0.03,0.02c-2.13,1.91-4.2,3.9-6.16,5.98
		c-2.45,2.6-4.93,5.22-6.95,8.18c-0.44,0.66-0.85,1.32-1.25,2.01c0.27-1.25,0.69-2.47,1.2-3.65c1.08-2.51,2.53-4.85,4.06-7.1
		c0.43-0.63,0.88-1.26,1.33-1.89c0.45-0.61,0.9-1.21,1.36-1.8c0,0,0-0.01,0.01-0.01c0.15-0.19,0.29-0.38,0.43-0.57
		c1.09-1.37,2.26-2.68,3.46-3.96c0.16-0.17,0.32-0.35,0.48-0.52h0c-0.37-0.65-0.72-1.31-1.07-1.98c-0.2-0.39-0.4-0.79-0.59-1.2
		c-0.27-0.56-0.54-1.11-0.79-1.68c-0.35-0.81-0.69-1.63-1.03-2.45c-2.09,1.35-4.13,2.77-6.11,4.28c0,0-0.01,0.01-0.01,0.01
		c-1.64,1.25-3.28,2.51-4.86,3.84c-1.16,0.98-2.28,1.98-3.33,3.08c-0.54,0.57-1.06,1.16-1.56,1.77c0.3-0.74,0.65-1.46,1.04-2.16
		c0.76-1.33,1.65-2.58,2.6-3.78c0.01-0.02,0.03-0.03,0.04-0.05c0.86-1.08,1.78-2.11,2.73-3.11c0.08-0.08,0.15-0.16,0.23-0.24
		c0.45-0.47,0.9-0.93,1.35-1.39c0.94-0.94,1.92-1.85,2.93-2.73c0.03-0.02,0.05-0.05,0.08-0.07c0.04-0.03,0.07-0.07,0.11-0.1
		c0.03-0.03,0.07-0.06,0.1-0.09c1.08-0.94,2.19-1.84,3.33-2.7v0c-0.54-1.46-1.03-2.93-1.49-4.42c0,0,0,0,0,0
		c-0.21-0.67-0.41-1.35-0.6-2.03c-0.02-0.07-0.03-0.13-0.05-0.2c-0.17-0.62-0.34-1.24-0.49-1.87c0,0,0,0,0,0
		c-0.75,0.37-1.48,0.77-2.22,1.15c-0.52,0.27-1.05,0.53-1.57,0.82c-0.43,0.23-0.88,0.48-1.32,0.73c-0.02,0.01-0.05,0.03-0.07,0.04
		c-0.2,0.11-0.39,0.22-0.59,0.33c-0.43,0.25-0.86,0.49-1.27,0.73c-0.75,0.44-1.5,0.89-2.24,1.34c-0.5,0.3-0.99,0.62-1.48,0.93
		c-0.61,0.39-1.23,0.78-1.82,1.19c-1.28,0.91-2.49,1.87-3.65,2.96c0,0,0,0,0,0c0.32-0.55,0.66-1.09,1.04-1.6
		c1-1.37,2.15-2.6,3.39-3.75c0.41-0.38,0.83-0.76,1.25-1.13c0.8-0.7,1.63-1.36,2.47-2.02c0.42-0.33,0.84-0.66,1.26-0.97
		c0.75-0.57,1.53-1.1,2.31-1.62c1.24-0.84,2.49-1.64,3.78-2.39c-0.38-1.95-0.65-3.92-0.82-5.91c-0.05-0.64-0.1-1.29-0.13-1.94
		c-0.3-6.5,0.3-12.83,0.28-19.21c0-0.66-0.01-1.32-0.03-1.98c-0.03-1.21-0.09-2.42-0.19-3.64c-0.07-0.86-0.16-1.72-0.27-2.58
		c-0.14-1.11-0.31-2.23-0.54-3.35c-0.04-0.2-0.09-0.39-0.13-0.59c-0.53-2.5-1.17-4.98-1.74-7.47c-0.21-0.9-0.4-1.79-0.58-2.7
		c-3.68-18.73,1.9-36.83,10.4-53.4c0.04-0.07,0.1-0.14,0.15-0.2c0.01-0.01,0.02-0.02,0.03-0.04c0.86-1.33,1.9-1.97,3.32-1.97
		c0.2,0,0.4,0.01,0.61,0.04c0.21,0.02,0.43,0.06,0.65,0.11c1.13,0.24,2.21,0.56,3.26,0.93c1.79,0.62,3.49,1.38,5.1,2.3
		c0.64,0.37,1.27,0.75,1.89,1.16c1.86,1.22,3.63,2.61,5.34,4.11c1.75,1.54,3.59,3.02,5.33,4.6c0.05,0.04,0.09,0.09,0.14,0.13
		c1.05,0.96,2.05,1.96,2.95,3.03c2.23,2.64,4.68,3.45,7.34,3.45c0.51,0,1.03-0.03,1.56-0.08c1.58-0.16,3.24-0.52,4.95-0.89
		c2.44-0.53,4.9-1.02,7.36-1.48c3.2-0.6,6.4-1.12,9.62-1.56c5.09-0.69,10.21-1.14,15.35-1.24c0.57-0.01,1.14-0.01,1.71-0.01
		c0.07,0,0.14,0,0.21,0c0.07,0,0.14,0,0.21,0c0.57,0,1.14,0.01,1.71,0.01c5.14,0.09,10.26,0.55,15.35,1.24
		c3.22,0.43,6.43,0.96,9.62,1.56c2.46,0.46,4.91,0.96,7.36,1.48c1.72,0.37,3.37,0.73,4.95,0.89c0.53,0.05,1.05,0.08,1.56,0.08
		c2.66,0,5.1-0.81,7.34-3.45c0.9-1.07,1.91-2.06,2.95-3.03c0.05-0.04,0.09-0.09,0.14-0.13c1.73-1.58,3.58-3.06,5.33-4.6
		c1.71-1.51,3.48-2.9,5.34-4.11c0.62-0.41,1.25-0.79,1.89-1.16c1.62-0.92,3.32-1.68,5.1-2.3c1.06-0.36,2.14-0.69,3.26-0.93
		c0.23-0.05,0.44-0.08,0.65-0.11c0.21-0.02,0.41-0.04,0.61-0.04c1.42,0,2.46,0.64,3.32,1.97c0.01,0.01,0.02,0.03,0.03,0.04
		c0.05,0.07,0.11,0.13,0.15,0.2c8.5,16.57,14.09,34.67,10.4,53.4c-0.18,0.9-0.37,1.8-0.58,2.7c-0.57,2.49-1.22,4.97-1.74,7.47
		c-0.04,0.2-0.09,0.39-0.13,0.59c-0.23,1.12-0.4,2.23-0.54,3.35c-0.11,0.86-0.2,1.72-0.27,2.58c-0.1,1.22-0.16,2.43-0.19,3.64
		c-0.02,0.66-0.03,1.32-0.03,1.98c-0.02,6.37,0.58,12.71,0.28,19.21c-0.03,0.65-0.08,1.3-0.13,1.94c-0.17,1.99-0.45,3.96-0.82,5.91
		c1.29,0.75,2.55,1.55,3.78,2.39c0.78,0.53,1.56,1.06,2.31,1.62c0.42,0.32,0.84,0.65,1.26,0.97c0.84,0.65,1.67,1.32,2.47,2.02
		c0.42,0.37,0.84,0.74,1.25,1.13C265.37,219.31,266.53,220.54,267.52,221.91z M102.3,134.39c2.48-0.51,5.07-0.81,7.74-0.83
		c0.05,0,0.11,0,0.16,0c3.65,0,7.36,0.6,10.9,1.81c0-0.06-0.01-0.12-0.03-0.18c-0.14-0.7-0.73-1.23-1.3-1.67
		c-3.88-2.94-8.35-5.07-12.69-7.25c-1.57-0.79-3.23-1.56-4.98-1.56c-0.04,0-0.07,0-0.11,0c-2.91,0.06-5.41,2.33-6.61,4.98
		c-1.21,2.65-1.37,5.64-1.53,8.54c-0.39,7.62-0.79,15.24-1.18,22.86c0.08,0.14,0.2,0.19,0.34,0.19c0.26,0,0.58-0.18,0.79-0.38
		c2.05-1.9,4.1-4.22,6.41-5.99c0.76-0.58,1.54-1.1,2.37-1.53c0,0,0.01,0,0.01,0c0.54-0.28,0.71-0.97,0.35-1.45
		c-1.39-1.85-3.26-3.43-5.24-4.71c1.59-0.35,3.18-0.52,4.76-0.52c2.32,0,4.6,0.37,6.76,1.1c-3.25-2.97-7.33-5.15-11.52-6.57
		c2.49-0.51,5.07-0.81,7.74-0.83c0.07,0,0.13,0,0.2,0c2.93,0,5.9,0.38,8.79,1.17C111.1,138.29,106.76,135.92,102.3,134.39z
		 M139.34,165.37c-0.64-3-2.44-5.1-5.19-6.4c-1.14-0.55-2.37-0.73-3.63-0.8c-0.17-0.01-0.34-0.01-0.51-0.01
		c-2.4,0-4.46,0.91-6.23,2.56c-1.03,0.96-1.78,2.11-2.35,3.39c-1.29,2.87-1.04,5.66,0.64,8.26c1.6,2.48,3.98,3.72,6.91,3.91
		c0.14,0.01,0.28,0.01,0.42,0.01c0.62,0,1.23-0.08,1.84-0.16c0-0.03,0.01-0.07,0.01-0.1c-0.32-0.08-0.64-0.15-0.95-0.24
		c-2.52-0.73-4.37-2.21-5.39-4.69c-1.15-2.79-0.34-6.47,2.04-8.27c1.46-1.1,2.97-1.69,4.54-1.69c0.99,0,2.01,0.24,3.05,0.72
		c2.54,1.19,4.1,3.22,4.51,6.05c0.03,0.19,0.06,0.37,0.09,0.62c0.07-0.18,0.13-0.3,0.16-0.43
		C139.56,167.19,139.53,166.27,139.34,165.37z M128.46,163.36c-0.02,0-0.04,0-0.06,0c-0.89,0-1.85,0.96-1.86,1.83
		c-0.01,1,0.86,1.88,1.88,1.9c0.01,0,0.02,0,0.03,0c1.01,0,1.82-0.79,1.83-1.81C130.27,164.19,129.67,163.42,128.46,163.36z
		 M218.43,164.11c-0.57-1.28-1.32-2.43-2.35-3.39c-1.78-1.65-3.83-2.56-6.23-2.56c-0.17,0-0.34,0-0.51,0.01
		c-1.25,0.07-2.48,0.26-3.63,0.8c-2.75,1.3-4.55,3.4-5.19,6.4c-0.19,0.89-0.23,1.82,0.03,2.72c0.04,0.13,0.09,0.25,0.16,0.43
		c0.04-0.24,0.07-0.43,0.09-0.62c0.4-2.84,1.96-4.86,4.51-6.05c1.04-0.49,2.06-0.72,3.05-0.72c1.57,0,3.08,0.59,4.54,1.69
		c2.38,1.8,3.2,5.48,2.04,8.27c-1.02,2.48-2.87,3.96-5.39,4.69c-0.31,0.09-0.63,0.16-0.95,0.24c0,0.03,0.01,0.07,0.01,0.1
		c0.61,0.07,1.23,0.16,1.84,0.16c0.14,0,0.28,0,0.42-0.01c2.93-0.19,5.31-1.44,6.91-3.91C219.46,169.76,219.72,166.98,218.43,164.11
		z M211.42,167.08c0.01,0,0.02,0,0.03,0c1.02-0.02,1.89-0.89,1.88-1.9c-0.01-0.87-0.98-1.83-1.86-1.83c-0.02,0-0.04,0-0.06,0
		c-1.21,0.07-1.81,0.83-1.8,1.91C209.59,166.3,210.41,167.08,211.42,167.08z M247.17,161.1c-0.39-7.62-0.79-15.24-1.18-22.86
		c-0.15-2.9-0.32-5.89-1.53-8.54c-1.21-2.65-3.7-4.92-6.61-4.98c-0.04,0-0.07,0-0.11,0c-1.75,0-3.41,0.77-4.98,1.56
		c-4.33,2.18-8.81,4.31-12.69,7.25c-0.57,0.43-1.16,0.96-1.3,1.67c-0.01,0.06-0.02,0.12-0.03,0.18c3.53-1.21,7.25-1.81,10.9-1.81
		c0.05,0,0.11,0,0.16,0c2.67,0.02,5.26,0.32,7.74,0.83c-4.46,1.52-8.8,3.89-12.14,7.17c2.88-0.78,5.86-1.17,8.79-1.17
		c0.07,0,0.13,0,0.2,0c2.67,0.02,5.26,0.32,7.74,0.83c-4.18,1.42-8.27,3.6-11.52,6.57c2.16-0.72,4.44-1.1,6.76-1.1
		c1.58,0,3.17,0.17,4.76,0.52c-1.97,1.28-3.85,2.86-5.24,4.71c-0.36,0.49-0.19,1.17,0.35,1.45c0,0,0.01,0,0.01,0
		c0.82,0.43,1.61,0.95,2.37,1.53c2.31,1.77,4.36,4.09,6.41,5.99c0.21,0.19,0.53,0.38,0.79,0.38
		C246.97,161.29,247.09,161.24,247.17,161.1z"/>
	<path class="st0" d="M273.5,218.77c-0.19-0.29-0.38-0.57-0.58-0.83c-1.45-1.99-3.25-3.89-5.64-5.97c-0.86-0.74-1.76-1.48-2.74-2.24
		c-0.44-0.35-0.9-0.7-1.38-1.06c-0.6-0.45-1.23-0.9-1.87-1.35c3.31-8.14,6-16.65,7.97-25.32l0.03-0.14
		c0.06-0.22,0.11-0.44,0.15-0.67l0.23-0.99c0.05-0.23,0.1-0.45,0.14-0.67l0.28-1.42c0.05-0.24,0.09-0.48,0.14-0.72
		c0.05-0.28,0.1-0.56,0.15-0.84c0.06-0.28,0.12-0.59,0.18-0.89c0.06-0.28,0.12-0.55,0.17-0.82c0.13-0.71,0.26-1.38,0.37-2.05
		c0.24-1.42,0.47-2.89,0.72-4.64l0.39-3.02c0.91-7.24,1.38-14.56,1.39-21.77l0.01-1.2l-0.01-0.95v-0.55l-0.03-1.44
		c-0.02-0.69-0.04-1.4-0.06-2.08c-0.03-0.91-0.07-1.79-0.11-2.66l-0.01-0.2c-0.37-7.38-1.14-13.11-1.7-16.52l-16.22-7.97
		c-0.85-1.84-1.73-3.69-2.69-5.57c-0.25-0.49-0.52-0.87-0.74-1.15c-2.09-3.05-5.19-4.72-8.74-4.72c-0.85,0-1.74,0.1-2.65,0.29
		c-1.35,0.29-2.68,0.66-3.99,1.11c-0.31,0.1-0.62,0.23-0.93,0.34l-65.8-32.34l-65.8,32.34c-0.31-0.11-0.62-0.24-0.93-0.34
		c-1.31-0.45-2.64-0.82-3.99-1.11c-0.91-0.19-1.8-0.29-2.65-0.29c-3.55,0-6.65,1.67-8.74,4.72c-0.22,0.28-0.49,0.66-0.74,1.15
		c-0.96,1.88-1.84,3.73-2.69,5.57l-16.22,7.97c-0.56,3.41-1.33,9.14-1.7,16.52l-0.01,0.2c-0.04,0.87-0.08,1.75-0.11,2.66
		c-0.02,0.68-0.04,1.39-0.06,2.08l-0.03,1.44v0.55l-0.01,0.95l0.01,1.2c0.01,7.21,0.48,14.53,1.39,21.77l0.39,3.02
		c0.25,1.75,0.48,3.22,0.72,4.64c0.11,0.67,0.24,1.34,0.37,2.05c0.05,0.27,0.11,0.54,0.17,0.82c0.06,0.3,0.12,0.61,0.18,0.89
		c0.05,0.28,0.1,0.56,0.15,0.84c0.05,0.24,0.09,0.48,0.14,0.72l0.28,1.42c0.04,0.22,0.09,0.44,0.14,0.67l0.23,0.99
		c0.04,0.23,0.09,0.45,0.15,0.67l0.03,0.14c1.97,8.67,4.66,17.18,7.97,25.32c-0.64,0.45-1.27,0.9-1.87,1.35
		c-0.48,0.36-0.94,0.71-1.38,1.06c-0.98,0.76-1.88,1.5-2.74,2.24c-2.39,2.08-4.19,3.98-5.64,5.97c-0.2,0.26-0.39,0.54-0.58,0.83
		c-27.48-60.78-11.99-111.74-11.99-111.74l112.21-55.14l3.35-1.88l3.35,1.88l112.21,55.14C285.49,107.03,300.98,157.98,273.5,218.77
		z"/>
</g>
</svg>
