<?xml version="1.0" encoding="utf-8"?>
<!-- Generator: Adobe Illustrator 28.1.0, SVG Export Plug-In . SVG Version: 6.00 Build 0)  -->
<svg version="1.1" id="Layer_1" xmlns="http://www.w3.org/2000/svg" xmlns:xlink="http://www.w3.org/1999/xlink" x="0px" y="0px"
	 viewBox="0 0 863.95 316.48" style="enable-background:new 0 0 863.95 316.48;" xml:space="preserve">
<style type="text/css">
	.st0{fill:#00588F;}
	.st1{opacity:0.2;enable-background:new    ;}
</style>
<g>
	<path class="st0" d="M130.34,137.22c-0.65-1.18-1.02-2.52-1.02-3.95c0-1.43,0.38-2.78,1.02-3.95c1.39-2.5,4.06-4.2,7.13-4.2
		c4.49,0,8.14,3.65,8.14,8.15c0,4.49-3.65,8.14-8.14,8.14C134.4,141.41,131.73,139.73,130.34,137.22z M184.86,180.89
		c4.5,0,8.15-3.65,8.15-8.14c0-4.5-3.65-8.15-8.15-8.15c-3.06,0-5.73,1.7-7.12,4.2c-0.66,1.17-1.02,2.51-1.02,3.95
		c0,1.43,0.36,2.78,1.02,3.94C179.13,179.19,181.79,180.89,184.86,180.89z M244.2,120.93c-0.11-7.86-0.79-14.21-1.39-18.47
		c-0.11-0.77-0.22-1.48-0.32-2.11c-0.08-0.47-0.16-0.9-0.22-1.28v-0.03c-0.03-0.13-0.05-0.24-0.08-0.35
		c-0.17-0.96-0.31-1.62-0.38-1.93c-0.03-0.16-0.05-0.23-0.05-0.23L147.11,50L52.43,96.52c0,0-2.14,9.18-2.39,23.61
		c-0.02,0.99-0.03,1.97-0.03,2.96v0.31h69.66c3.48-6.25,10.16-10.48,17.82-10.48c6.94,0,13.07,3.47,16.73,8.76
		c2.28,3.29,3.62,7.29,3.62,11.6c0,11.23-9.1,20.36-20.35,20.36c-6.19,0-11.73-2.76-15.46-7.13c-0.9-1.04-1.68-2.17-2.36-3.37h-68.4
		c0.28,2.27,0.61,4.58,1.02,6.95c0.11,0.61,0.22,1.23,0.33,1.84c0.65,3.56,1.45,7.21,2.42,10.94h112.03
		c3.47-6.25,10.14-10.48,17.79-10.48c6.92,0,13.04,3.45,16.71,8.72c0.01,0.01,0.02,0.01,0.02,0.02c2.28,3.29,3.62,7.29,3.62,11.62
		c0,11.24-9.12,20.35-20.36,20.35c-6.18,0-11.71-2.75-15.45-7.1c0-0.01,0-0.01-0.01-0.02c-0.88-1.04-1.67-2.17-2.33-3.37H61.64
		c12.41,29.71,37.15,61.16,85.16,83.71c0.08,0.05,0.14,0.08,0.24,0.11c0.03,0.02,0.05,0.03,0.08,0.05c0.02-0.01,0.05-0.02,0.06-0.05
		c19.3-9.04,34.86-19.51,47.36-30.76c0.6-0.53,1.18-1.06,1.75-1.59c0.58-0.54,1.16-1.07,1.73-1.62c0.57-0.55,1.13-1.09,1.7-1.65
		c0.57-0.55,1.12-1.12,1.68-1.67c0.53-0.54,1.06-1.09,1.59-1.62c0.05-0.05,0.09-0.11,0.14-0.16c0.85-0.89,1.69-1.8,2.51-2.7
		c1.5-1.64,2.97-3.28,4.35-4.95c0.63-0.75,1.25-1.5,1.86-2.26c0.49-0.6,0.97-1.21,1.43-1.81c1.4-1.8,2.75-3.62,4.05-5.45
		c0.43-0.61,0.85-1.22,1.27-1.83c0.82-1.22,1.64-2.45,2.42-3.67c0.31-0.49,0.63-0.98,0.93-1.47c0.47-0.74,0.91-1.49,1.37-2.24
		c8.65-14.47,13.9-29.05,16.96-42.53c0.19-0.76,0.35-1.52,0.51-2.28c0.03-0.16,0.08-0.32,0.09-0.49c0.05-0.17,0.08-0.33,0.11-0.49
		c0.01-0.05,0.01-0.11,0.02-0.14C243.63,142.2,244.33,130.47,244.2,120.93z"/>
	<path class="st0" d="M367.96,124.48v18.24h-66.98V59.29h65.44v18.24h-42.07v14.06h37.07v17.64h-37.07v15.26L367.96,124.48
		L367.96,124.48z"/>
	<path class="st0" d="M376.66,101c0-25.39,19.42-43.39,45.88-43.39c15.38,0,27.77,5.6,35.87,15.73L443.4,86.94
		c-5.25-6.32-11.68-9.78-19.67-9.78c-13.71,0-23.24,9.53-23.24,23.84s9.53,23.84,23.24,23.84c7.99,0,14.42-3.46,19.67-9.78
		l15.02,13.59c-8.11,10.13-20.5,15.73-35.87,15.73C396.09,144.39,376.66,126.39,376.66,101z"/>
	<path class="st0" d="M468.91,59.29h23.6v64.72h39.81v18.71h-63.41V59.29z"/>
	<path class="st0" d="M541.61,59.29h23.6v83.43h-23.6V59.29z"/>
	<path class="st0" d="M657.23,90.15c0,18.95-14.31,30.75-37.07,30.75h-14.54v21.81h-23.6V59.29h38.14
		C642.92,59.29,657.23,71.09,657.23,90.15z M633.39,90.15c0-7.75-4.88-12.28-14.66-12.28h-13.11v24.43h13.11
		C628.5,102.31,633.39,97.79,633.39,90.15z"/>
	<path class="st0" d="M664.01,135.21l7.75-17.4c7.39,4.88,17.88,8.22,27.53,8.22c9.78,0,13.59-2.74,13.59-6.79
		c0-13.23-47.44-3.58-47.44-34.56c0-14.89,12.15-27.06,36.95-27.06c10.85,0,22.05,2.51,30.27,7.27l-7.27,17.52
		c-7.99-4.29-15.85-6.43-23.12-6.43c-9.89,0-13.47,3.34-13.47,7.51c0,12.75,47.32,3.22,47.32,33.97c0,14.54-12.15,26.94-36.95,26.94
		C685.47,144.39,671.89,140.69,664.01,135.21z"/>
	<path class="st0" d="M813.95,124.48v18.24h-66.98V59.29h66.98v18.24h-43.62v14.06h37.07v17.64h-37.07v15.26L813.95,124.48
		L813.95,124.48z"/>
	<path class="st0" d="M301.08,201.52h2.88v39.49h-2.88V201.52z"/>
	<path class="st0" d="M349.87,201.52v39.49h-2.37l-26.91-34.3v34.3h-2.88v-39.49h2.42l26.85,34.3v-34.3L349.87,201.52L349.87,201.52
		z"/>
	<path class="st0" d="M366.51,204.12v16.87h21.04v2.6h-21.04v17.43h-2.88v-39.49h26.4v2.6H366.51z"/>
	<path class="st0" d="M426.64,241l-9.42-13.2c-1.24,0.17-2.48,0.28-3.84,0.28h-11.28V241h-2.88v-39.49h14.16
		c9.93,0,15.91,4.97,15.91,13.31c0,6.26-3.38,10.61-9.25,12.35l9.87,13.82L426.64,241L426.64,241z M413.39,225.55
		c8.46,0,12.98-3.95,12.98-10.72c0-6.82-4.51-10.72-12.98-10.72h-11.28v21.43L413.39,225.55L413.39,225.55z"/>
	<path class="st0" d="M464.27,229.89h-22.9L436.34,241h-3.1l18.16-39.49h2.88L472.44,241h-3.1L464.27,229.89z M463.2,227.47
		l-10.38-22.79l-10.32,22.79H463.2z"/>
	<path class="st0" d="M475.61,235.93l1.3-2.14c2.71,2.82,7.73,4.97,13.03,4.97c7.9,0,11.39-3.44,11.39-7.73
		c0-11.84-24.65-4.74-24.65-19.3c0-5.59,4.29-10.49,13.99-10.49c4.34,0,8.86,1.35,11.91,3.56l-1.07,2.31
		c-3.27-2.26-7.28-3.33-10.83-3.33c-7.67,0-11.11,3.56-11.11,7.9c0,11.84,24.65,4.85,24.65,19.18c0,5.59-4.45,10.43-14.22,10.43
		C484.12,241.29,478.48,239.09,475.61,235.93z"/>
	<path class="st0" d="M520.96,204.12h-14.22v-2.6h31.31v2.6h-14.22v36.89h-2.88V204.12z"/>
	<path class="st0" d="M572.58,241l-9.42-13.2c-1.24,0.17-2.48,0.28-3.84,0.28h-11.28V241h-2.88v-39.49h14.16
		c9.93,0,15.91,4.97,15.91,13.31c0,6.26-3.38,10.61-9.25,12.35l9.87,13.82L572.58,241L572.58,241z M559.32,225.55
		c8.46,0,12.98-3.95,12.98-10.72c0-6.82-4.51-10.72-12.98-10.72h-11.28v21.43L559.32,225.55L559.32,225.55z"/>
	<path class="st0" d="M585.43,224.25v-22.73h2.88v22.62c0,9.87,4.74,14.49,12.98,14.49c8.24,0,12.92-4.63,12.92-14.49v-22.62h2.88
		v22.73c0,11.28-6.03,17.04-15.85,17.04C591.41,241.29,585.43,235.54,585.43,224.25z"/>
	<path class="st0" d="M626.73,221.26c0-11.51,8.74-20.03,20.47-20.03c5.59,0,10.61,1.8,14.05,5.47l-1.8,1.86
		c-3.38-3.33-7.5-4.68-12.13-4.68c-10.09,0-17.71,7.44-17.71,17.37s7.62,17.37,17.71,17.37c4.63,0,8.74-1.41,12.13-4.74l1.8,1.86
		c-3.44,3.67-8.46,5.53-14.05,5.53C635.47,241.29,626.73,232.77,626.73,221.26z"/>
	<path class="st0" d="M677.95,204.12h-14.22v-2.6h31.31v2.6h-14.22v36.89h-2.88L677.95,204.12L677.95,204.12z"/>
	<path class="st0" d="M701.02,224.25v-22.73h2.88v22.62c0,9.87,4.74,14.49,12.98,14.49c8.24,0,12.92-4.63,12.92-14.49v-22.62h2.88
		v22.73c0,11.28-6.03,17.04-15.85,17.04C707,241.29,701.02,235.54,701.02,224.25z"/>
	<path class="st0" d="M773.51,241l-9.42-13.2c-1.24,0.17-2.48,0.28-3.84,0.28h-11.28V241h-2.88v-39.49h14.16
		c9.93,0,15.91,4.97,15.91,13.31c0,6.26-3.38,10.61-9.25,12.35l9.87,13.82L773.51,241L773.51,241z M760.25,225.55
		c8.46,0,12.98-3.95,12.98-10.72c0-6.82-4.51-10.72-12.98-10.72h-11.28v21.43L760.25,225.55L760.25,225.55z"/>
	<path class="st0" d="M813.95,238.41v2.6H786.7v-39.49h27.25v2.6h-24.37v15.57h21.04v2.54h-21.04v16.19H813.95z"/>
	<rect x="268.47" y="59.5" class="st0" width="8.25" height="181.52"/>
	<path class="st0" d="M56.65,193.1v30.76c0,8.27,6.7,14.96,14.96,14.96h19.01C76.25,225.5,64.9,210.29,56.65,193.1z"/>
	<path class="st0" d="M71.61,57.91c-8.27,0-14.96,6.7-14.96,14.96v11.69l54.23-26.65H71.61z"/>
	<path class="st0" d="M237.56,72.87c0-8.26-6.7-14.96-14.96-14.96h-39.29l54.25,26.66V72.87z"/>
	<path class="st0" d="M204.13,238.82h18.47c8.27,0,14.96-6.7,14.96-14.96v-30.83C230.27,208.25,219.63,224.03,204.13,238.82z"/>
	<g>
		<path class="st0" d="M301.08,172.21c0-10.18,7.73-17.7,18.1-17.7c4.94,0,9.38,1.59,12.42,4.84l-1.59,1.65
			c-2.99-2.94-6.63-4.14-10.72-4.14c-8.92,0-15.66,6.58-15.66,15.36s6.73,15.36,15.66,15.36c4.09,0,7.73-1.25,10.72-4.19l1.59,1.65
			c-3.04,3.24-7.48,4.89-12.42,4.89C308.81,189.92,301.08,182.39,301.08,172.21z"/>
		<path class="st0" d="M336.04,172.21c0-10.12,7.73-17.7,18.16-17.7c10.37,0,18.16,7.53,18.16,17.7s-7.78,17.7-18.16,17.7
			C343.77,189.92,336.04,182.34,336.04,172.21z M369.76,172.21c0-8.83-6.68-15.36-15.56-15.36c-8.92,0-15.61,6.54-15.61,15.36
			s6.68,15.36,15.61,15.36C363.07,187.58,369.76,181.04,369.76,172.21z"/>
		<path class="st0" d="M414.2,189.67l-0.05-29.87l-14.62,25.24h-1.25l-14.62-25.14v29.77h-2.49v-34.92h2.14l15.61,26.98l15.61-26.98
			h2.1l0.05,34.92H414.2z"/>
		<path class="st0" d="M461.89,189.67l-0.05-29.87l-14.62,25.24h-1.25l-14.62-25.14v29.77h-2.49v-34.92h2.14l15.61,26.98
			l15.61-26.98h2.09l0.05,34.92H461.89z"/>
		<path class="st0" d="M473.21,172.21c0-10.12,7.73-17.7,18.16-17.7c10.37,0,18.16,7.53,18.16,17.7s-7.78,17.7-18.16,17.7
			C480.94,189.92,473.21,182.34,473.21,172.21z M506.93,172.21c0-8.83-6.68-15.36-15.56-15.36c-8.93,0-15.61,6.54-15.61,15.36
			s6.68,15.36,15.61,15.36C500.25,187.58,506.93,181.04,506.93,172.21z"/>
		<path class="st0" d="M546.79,154.76v34.92h-2.1l-23.79-30.33v30.33h-2.54v-34.92h2.14l23.74,30.33v-30.33H546.79z"/>
		<path class="st0" d="M568.24,185.18l1.15-1.89c2.39,2.49,6.83,4.39,11.52,4.39c6.98,0,10.07-3.04,10.07-6.83
			c0-10.47-21.79-4.19-21.79-17.05c0-4.94,3.79-9.28,12.37-9.28c3.84,0,7.83,1.2,10.52,3.14l-0.94,2.05
			c-2.89-1.99-6.43-2.94-9.58-2.94c-6.78,0-9.82,3.14-9.82,6.98c0,10.47,21.79,4.29,21.79,16.96c0,4.94-3.94,9.23-12.57,9.23
			C575.77,189.92,570.78,187.98,568.24,185.18z"/>
		<path class="st0" d="M626.24,187.38v2.29h-24.09v-34.92h23.34v2.29h-20.8v13.76h18.6v2.24h-18.6v14.31L626.24,187.38
			L626.24,187.38z"/>
		<path class="st0" d="M631.99,172.21c0-10.18,7.73-17.7,18.1-17.7c4.94,0,9.38,1.59,12.42,4.84l-1.59,1.65
			c-2.99-2.94-6.63-4.14-10.72-4.14c-8.92,0-15.66,6.58-15.66,15.36s6.73,15.36,15.66,15.36c4.09,0,7.73-1.25,10.72-4.19l1.59,1.65
			c-3.04,3.24-7.48,4.89-12.42,4.89C639.72,189.92,631.99,182.39,631.99,172.21z"/>
		<path class="st0" d="M670.69,174.86v-20.1h2.54v20c0,8.73,4.19,12.82,11.47,12.82s11.42-4.09,11.42-12.82v-20h2.54v20.1
			c0,9.97-5.34,15.06-14.01,15.06C675.98,189.92,670.69,184.84,670.69,174.86z"/>
		<path class="st0" d="M734.79,189.67L726.46,178c-1.09,0.15-2.2,0.25-3.39,0.25h-9.97v11.42h-2.54v-34.92h12.52
			c8.78,0,14.06,4.39,14.06,11.77c0,5.53-3,9.38-8.18,10.92l8.73,12.22H734.79z M723.07,176c7.48,0,11.47-3.49,11.47-9.47
			c0-6.03-3.99-9.47-11.47-9.47h-9.97v18.96L723.07,176L723.07,176z"/>
		<path class="st0" d="M746.47,154.76h2.54v34.92h-2.54V154.76z"/>
		<path class="st0" d="M767.86,157.06h-12.57v-2.29h27.68v2.29H770.4v32.62h-2.54L767.86,157.06L767.86,157.06z"/>
		<path class="st0" d="M799.88,177.65v12.02h-2.54v-12.02l-14.06-22.89h2.79l12.62,20.55l12.62-20.55h2.64L799.88,177.65z"/>
	</g>
	<path class="st1" d="M90.61,238.82h-4.54c-12.02-11.81-21.83-25.04-29.41-39.63v-6.08C64.9,210.29,76.25,225.5,90.61,238.82z
		 M104.85,57.91L56.65,81.6v2.96l54.23-26.65H104.85z M237.56,81.6l-48.21-23.69h-6.04l54.24,26.66L237.56,81.6L237.56,81.6z
		 M204.13,238.82h3.83c13.11-12.91,22.66-26.52,29.6-39.83v-5.96C230.27,208.25,219.63,224.03,204.13,238.82z M51.26,143.14
		c0.28,2.27,0.61,4.58,1.02,6.95c0.11,0.61,0.22,1.23,0.33,1.84c0.69,3.68,1.5,7.32,2.46,10.94h2.13
		c-1.89-6.47-3.35-13.07-4.39-19.73L51.26,143.14L51.26,143.14z M244.2,120.93c-0.02-1.16-0.05-2.28-0.09-3.38
		c-0.13-3.85-0.4-7.69-0.85-11.51c-0.15-1.32-0.3-2.51-0.45-3.58c-0.11-0.77-0.22-1.48-0.32-2.11c-0.08-0.43-0.14-0.85-0.22-1.28
		v-0.03c-0.06-0.31-0.12-0.62-0.17-0.93c-0.02-0.1-0.04-0.18-0.05-0.27c-0.08-0.44-0.17-0.88-0.25-1.31
		c0.01,0.08,0.02,0.16,0.03,0.23c2.48,16.88,1.89,34.18-1.24,50.92c-9.32,53.46-45.25,92.1-93.41,114.87
		c-3.31-1.67-7.34-3.42-10.18-5.12c-15.1-8.11-29.31-18.25-41.55-30.26c-13.21-12.73-23.61-27.95-31.03-44.54h-2.68
		c3.9,9.38,8.76,18.34,14.55,26.7c12.55,17.9,29.14,33.03,47.7,44.53c7.25,4.71,15.29,8.76,23.06,12.58
		c17.05-7.97,33.38-18.14,47.48-30.76c0.6-0.53,1.18-1.06,1.75-1.59c0.58-0.54,1.16-1.07,1.73-1.62c0.57-0.55,1.13-1.09,1.7-1.65
		c0.57-0.55,1.12-1.12,1.68-1.67c0.53-0.54,1.06-1.09,1.59-1.62c0.05-0.05,0.09-0.11,0.14-0.16c1.62-1.69,3.18-3.4,4.71-5.17
		c0.73-0.82,1.45-1.65,2.16-2.49c0.63-0.75,1.25-1.5,1.86-2.26c0.49-0.6,0.97-1.21,1.43-1.81c1.42-1.78,2.76-3.61,4.05-5.45
		c0.43-0.61,0.85-1.22,1.27-1.83c0.82-1.22,1.64-2.45,2.42-3.67c0.31-0.49,0.63-0.98,0.93-1.47c0.47-0.74,0.91-1.49,1.37-2.24
		c7.81-13.17,13.51-27.59,16.96-42.53c0.21-0.91,0.42-1.84,0.6-2.77c0.05-0.17,0.08-0.33,0.11-0.49c2.01-9.64,3.1-19.47,3.23-29.31
		c0.01-0.33,0-0.67,0-1C244.22,123.54,244.22,122.21,244.2,120.93z M52.44,96.52c-1.43,7.78-2.24,15.69-2.42,23.61
		C50,121.11,50,122.1,50,123.08v0.31h0.96C50.68,114.43,51.17,105.42,52.44,96.52z"/>
</g>
</svg>
